<svg xmlns="http://www.w3.org/2000/svg" width="280" height="280" viewbox="0 0 280 280" preserveAspectRatio="none"><rect x="0" y="0" width="100%" height="100%" fill="rgb(73, 63, 58)" /><polyline points="15.4,0,31.266666666667,0,46.666666666667,15.4,46.666666666667,31.266666666667,31.266666666667,46.666666666667,15.4,46.666666666667,0,31.266666666667,0,15.4,15.4,0" fill="#222" fill-opacity="0.11533333333333" stroke="#000" stroke-opacity="0.02" transform="translate(0, 0)" /><polyline points="15.4,0,31.266666666667,0,46.666666666667,15.4,46.666666666667,31.266666666667,31.266666666667,46.666666666667,15.4,46.666666666667,0,31.266666666667,0,15.4,15.4,0" fill="#222" fill-opacity="0.063333333333333" stroke="#000" stroke-opacity="0.02" transform="translate(46.666666666667, 0)" /><polyline points="15.4,0,31.266666666667,0,46.666666666667,15.4,46.666666666667,31.266666666667,31.266666666667,46.666666666667,15.4,46.666666666667,0,31.266666666667,0,15.4,15.4,0" fill="#222" fill-opacity="0.11533333333333" stroke="#000" stroke-opacity="0.02" transform="translate(93.333333333333, 0)" /><polyline points="15.4,0,31.266666666667,0,46.666666666667,15.4,46.666666666667,31.266666666667,31.266666666667,46.666666666667,15.4,46.666666666667,0,31.266666666667,0,15.4,15.4,0" fill="#222" fill-opacity="0.13266666666667" stroke="#000" stroke-opacity="0.02" transform="translate(140, 0)" /><polyline points="15.4,0,31.266666666667,0,46.666666666667,15.4,46.666666666667,31.266666666667,31.266666666667,46.666666666667,15.4,46.666666666667,0,31.266666666667,0,15.4,15.4,0" fill="#ddd" fill-opacity="0.14133333333333" stroke="#000" stroke-opacity="0.02" transform="translate(186.66666666667, 0)" /><polyline points="15.4,0,31.266666666667,0,46.666666666667,15.4,46.666666666667,31.266666666667,31.266666666667,46.666666666667,15.4,46.666666666667,0,31.266666666667,0,15.4,15.4,0" fill="#ddd" fill-opacity="0.02" stroke="#000" stroke-opacity="0.02" transform="translate(233.33333333333, 0)" /><polyline points="15.4,0,31.266666666667,0,46.666666666667,15.4,46.666666666667,31.266666666667,31.266666666667,46.666666666667,15.4,46.666666666667,0,31.266666666667,0,15.4,15.4,0" fill="#222" fill-opacity="0.063333333333333" stroke="#000" stroke-opacity="0.02" transform="translate(0, 46.666666666667)" /><polyline points="15.4,0,31.266666666667,0,46.666666666667,15.4,46.666666666667,31.266666666667,31.266666666667,46.666666666667,15.4,46.666666666667,0,31.266666666667,0,15.4,15.4,0" fill="#222" fill-opacity="0.13266666666667" stroke="#000" stroke-opacity="0.02" transform="translate(46.666666666667, 46.666666666667)" /><polyline points="15.4,0,31.266666666667,0,46.666666666667,15.4,46.666666666667,31.266666666667,31.266666666667,46.666666666667,15.4,46.666666666667,0,31.266666666667,0,15.4,15.4,0" fill="#222" fill-opacity="0.11533333333333" stroke="#000" stroke-opacity="0.02" transform="translate(93.333333333333, 46.666666666667)" /><polyline points="15.4,0,31.266666666667,0,46.666666666667,15.4,46.666666666667,31.266666666667,31.266666666667,46.666666666667,15.4,46.666666666667,0,31.266666666667,0,15.4,15.4,0" fill="#ddd" fill-opacity="0.14133333333333" stroke="#000" stroke-opacity="0.02" transform="translate(140, 46.666666666667)" /><polyline points="15.4,0,31.266666666667,0,46.666666666667,15.4,46.666666666667,31.266666666667,31.266666666667,46.666666666667,15.4,46.666666666667,0,31.266666666667,0,15.4,15.4,0" fill="#ddd" fill-opacity="0.124" stroke="#000" stroke-opacity="0.02" transform="translate(186.66666666667, 46.666666666667)" /><polyline points="15.4,0,31.266666666667,0,46.666666666667,15.4,46.666666666667,31.266666666667,31.266666666667,46.666666666667,15.4,46.666666666667,0,31.266666666667,0,15.4,15.4,0" fill="#222" fill-opacity="0.13266666666667" stroke="#000" stroke-opacity="0.02" transform="translate(233.33333333333, 46.666666666667)" /><polyline points="15.4,0,31.266666666667,0,46.666666666667,15.4,46.666666666667,31.266666666667,31.266666666667,46.666666666667,15.4,46.666666666667,0,31.266666666667,0,15.4,15.4,0" fill="#ddd" fill-opacity="0.054666666666667" stroke="#000" stroke-opacity="0.02" transform="translate(0, 93.333333333333)" /><polyline points="15.4,0,31.266666666667,0,46.666666666667,15.4,46.666666666667,31.266666666667,31.266666666667,46.666666666667,15.4,46.666666666667,0,31.266666666667,0,15.4,15.4,0" fill="#ddd" fill-opacity="0.14133333333333" stroke="#000" stroke-opacity="0.02" transform="translate(46.666666666667, 93.333333333333)" /><polyline points="15.4,0,31.266666666667,0,46.666666666667,15.4,46.666666666667,31.266666666667,31.266666666667,46.666666666667,15.4,46.666666666667,0,31.266666666667,0,15.4,15.4,0" fill="#ddd" fill-opacity="0.072" stroke="#000" stroke-opacity="0.02" transform="translate(93.333333333333, 93.333333333333)" /><polyline points="15.4,0,31.266666666667,0,46.666666666667,15.4,46.666666666667,31.266666666667,31.266666666667,46.666666666667,15.4,46.666666666667,0,31.266666666667,0,15.4,15.4,0" fill="#ddd" fill-opacity="0.037333333333333" stroke="#000" stroke-opacity="0.02" transform="translate(140, 93.333333333333)" /><polyline points="15.4,0,31.266666666667,0,46.666666666667,15.4,46.666666666667,31.266666666667,31.266666666667,46.666666666667,15.4,46.666666666667,0,31.266666666667,0,15.4,15.4,0" fill="#ddd" fill-opacity="0.02" stroke="#000" stroke-opacity="0.02" transform="translate(186.66666666667, 93.333333333333)" /><polyline points="15.4,0,31.266666666667,0,46.666666666667,15.4,46.666666666667,31.266666666667,31.266666666667,46.666666666667,15.4,46.666666666667,0,31.266666666667,0,15.4,15.4,0" fill="#ddd" fill-opacity="0.072" stroke="#000" stroke-opacity="0.02" transform="translate(233.33333333333, 93.333333333333)" /><polyline points="15.4,0,31.266666666667,0,46.666666666667,15.4,46.666666666667,31.266666666667,31.266666666667,46.666666666667,15.4,46.666666666667,0,31.266666666667,0,15.4,15.4,0" fill="#222" fill-opacity="0.028666666666667" stroke="#000" stroke-opacity="0.02" transform="translate(0, 140)" /><polyline points="15.4,0,31.266666666667,0,46.666666666667,15.4,46.666666666667,31.266666666667,31.266666666667,46.666666666667,15.4,46.666666666667,0,31.266666666667,0,15.4,15.4,0" fill="#222" fill-opacity="0.098" stroke="#000" stroke-opacity="0.02" transform="translate(46.666666666667, 140)" /><polyline points="15.4,0,31.266666666667,0,46.666666666667,15.4,46.666666666667,31.266666666667,31.266666666667,46.666666666667,15.4,46.666666666667,0,31.266666666667,0,15.4,15.4,0" fill="#ddd" fill-opacity="0.02" stroke="#000" stroke-opacity="0.02" transform="translate(93.333333333333, 140)" /><polyline points="15.4,0,31.266666666667,0,46.666666666667,15.4,46.666666666667,31.266666666667,31.266666666667,46.666666666667,15.4,46.666666666667,0,31.266666666667,0,15.4,15.4,0" fill="#222" fill-opacity="0.15" stroke="#000" stroke-opacity="0.02" transform="translate(140, 140)" /><polyline points="15.4,0,31.266666666667,0,46.666666666667,15.4,46.666666666667,31.266666666667,31.266666666667,46.666666666667,15.4,46.666666666667,0,31.266666666667,0,15.4,15.4,0" fill="#222" fill-opacity="0.098" stroke="#000" stroke-opacity="0.02" transform="translate(186.66666666667, 140)" /><polyline points="15.4,0,31.266666666667,0,46.666666666667,15.4,46.666666666667,31.266666666667,31.266666666667,46.666666666667,15.4,46.666666666667,0,31.266666666667,0,15.4,15.4,0" fill="#ddd" fill-opacity="0.124" stroke="#000" stroke-opacity="0.02" transform="translate(233.33333333333, 140)" /><polyline points="15.4,0,31.266666666667,0,46.666666666667,15.4,46.666666666667,31.266666666667,31.266666666667,46.666666666667,15.4,46.666666666667,0,31.266666666667,0,15.4,15.4,0" fill="#222" fill-opacity="0.063333333333333" stroke="#000" stroke-opacity="0.02" transform="translate(0, 186.66666666667)" /><polyline points="15.4,0,31.266666666667,0,46.666666666667,15.4,46.666666666667,31.266666666667,31.266666666667,46.666666666667,15.4,46.666666666667,0,31.266666666667,0,15.4,15.4,0" fill="#222" fill-opacity="0.046" stroke="#000" stroke-opacity="0.02" transform="translate(46.666666666667, 186.66666666667)" /><polyline points="15.4,0,31.266666666667,0,46.666666666667,15.4,46.666666666667,31.266666666667,31.266666666667,46.666666666667,15.4,46.666666666667,0,31.266666666667,0,15.4,15.4,0" fill="#ddd" fill-opacity="0.054666666666667" stroke="#000" stroke-opacity="0.02" transform="translate(93.333333333333, 186.66666666667)" /><polyline points="15.4,0,31.266666666667,0,46.666666666667,15.4,46.666666666667,31.266666666667,31.266666666667,46.666666666667,15.4,46.666666666667,0,31.266666666667,0,15.4,15.4,0" fill="#222" fill-opacity="0.046" stroke="#000" stroke-opacity="0.02" transform="translate(140, 186.66666666667)" /><polyline points="15.4,0,31.266666666667,0,46.666666666667,15.4,46.666666666667,31.266666666667,31.266666666667,46.666666666667,15.4,46.666666666667,0,31.266666666667,0,15.4,15.4,0" fill="#ddd" fill-opacity="0.124" stroke="#000" stroke-opacity="0.02" transform="translate(186.66666666667, 186.66666666667)" /><polyline points="15.4,0,31.266666666667,0,46.666666666667,15.4,46.666666666667,31.266666666667,31.266666666667,46.666666666667,15.4,46.666666666667,0,31.266666666667,0,15.4,15.4,0" fill="#222" fill-opacity="0.13266666666667" stroke="#000" stroke-opacity="0.02" transform="translate(233.33333333333, 186.66666666667)" /><polyline points="15.4,0,31.266666666667,0,46.666666666667,15.4,46.666666666667,31.266666666667,31.266666666667,46.666666666667,15.4,46.666666666667,0,31.266666666667,0,15.4,15.4,0" fill="#222" fill-opacity="0.13266666666667" stroke="#000" stroke-opacity="0.02" transform="translate(0, 233.33333333333)" /><polyline points="15.4,0,31.266666666667,0,46.666666666667,15.4,46.666666666667,31.266666666667,31.266666666667,46.666666666667,15.4,46.666666666667,0,31.266666666667,0,15.4,15.4,0" fill="#ddd" fill-opacity="0.089333333333333" stroke="#000" stroke-opacity="0.02" transform="translate(46.666666666667, 233.33333333333)" /><polyline points="15.4,0,31.266666666667,0,46.666666666667,15.4,46.666666666667,31.266666666667,31.266666666667,46.666666666667,15.4,46.666666666667,0,31.266666666667,0,15.4,15.4,0" fill="#ddd" fill-opacity="0.02" stroke="#000" stroke-opacity="0.02" transform="translate(93.333333333333, 233.33333333333)" /><polyline points="15.4,0,31.266666666667,0,46.666666666667,15.4,46.666666666667,31.266666666667,31.266666666667,46.666666666667,15.4,46.666666666667,0,31.266666666667,0,15.4,15.4,0" fill="#ddd" fill-opacity="0.10666666666667" stroke="#000" stroke-opacity="0.02" transform="translate(140, 233.33333333333)" /><polyline points="15.4,0,31.266666666667,0,46.666666666667,15.4,46.666666666667,31.266666666667,31.266666666667,46.666666666667,15.4,46.666666666667,0,31.266666666667,0,15.4,15.4,0" fill="#ddd" fill-opacity="0.037333333333333" stroke="#000" stroke-opacity="0.02" transform="translate(186.66666666667, 233.33333333333)" /><polyline points="15.4,0,31.266666666667,0,46.666666666667,15.4,46.666666666667,31.266666666667,31.266666666667,46.666666666667,15.4,46.666666666667,0,31.266666666667,0,15.4,15.4,0" fill="#ddd" fill-opacity="0.054666666666667" stroke="#000" stroke-opacity="0.02" transform="translate(233.33333333333, 233.33333333333)" /></svg>